<?xml version="1.0" encoding="UTF-8" standalone="no"?>
<!-- Created with Inkscape (http://www.inkscape.org/) -->

<svg
   xmlns:dc="http://purl.org/dc/elements/1.1/"
   xmlns:cc="http://creativecommons.org/ns#"
   xmlns:rdf="http://www.w3.org/1999/02/22-rdf-syntax-ns#"
   xmlns:svg="http://www.w3.org/2000/svg"
   xmlns="http://www.w3.org/2000/svg"
   xmlns:sodipodi="http://sodipodi.sourceforge.net/DTD/sodipodi-0.dtd"
   xmlns:inkscape="http://www.inkscape.org/namespaces/inkscape"
   width="433"
   height="433"
   id="svg2"
   version="1.1"
   inkscape:version="0.48.4 r9939"
   sodipodi:docname="backarrow.svg"
   inkscape:export-filename="/home/c/GitHub/todoapp/JavaFXtest/src/PomodoroTimer/com.culshoefer.fuzzytesting.culshoefer.tomatotracker.resources/svg/backarrow.png"
   inkscape:export-xdpi="18.613138"
   inkscape:export-ydpi="18.613138">
  <defs
     id="defs4">
    <marker
       inkscape:stockid="TriangleInM"
       orient="auto"
       refY="0"
       refX="0"
       id="TriangleInM"
       style="overflow:visible">
      <path
         id="path4004"
         d="m 5.77,0 -8.65,5 0,-10 8.65,5 z"
         style="fill-rule:evenodd;stroke:#000000;stroke-width:1pt"
         transform="scale(-0.4,-0.4)"
         inkscape:connector-curvature="0" />
    </marker>
    <marker
       inkscape:stockid="TriangleInS"
       orient="auto"
       refY="0"
       refX="0"
       id="TriangleInS"
       style="overflow:visible">
      <path
         id="path4007"
         d="m 5.77,0 -8.65,5 0,-10 8.65,5 z"
         style="fill-rule:evenodd;stroke:#000000;stroke-width:1pt"
         transform="scale(-0.2,-0.2)"
         inkscape:connector-curvature="0" />
    </marker>
    <marker
       inkscape:stockid="TriangleInL"
       orient="auto"
       refY="0"
       refX="0"
       id="TriangleInL"
       style="overflow:visible">
      <path
         id="path4001"
         d="m 5.77,0 -8.65,5 0,-10 8.65,5 z"
         style="fill-rule:evenodd;stroke:#000000;stroke-width:1pt"
         transform="scale(-0.8,-0.8)"
         inkscape:connector-curvature="0" />
    </marker>
    <marker
       inkscape:stockid="Arrow2Lstart"
       orient="auto"
       refY="0"
       refX="0"
       id="Arrow2Lstart"
       style="overflow:visible">
      <path
         id="path3886"
         style="fill-rule:evenodd;stroke-width:0.625;stroke-linejoin:round"
         d="M 8.7185878,4.0337352 -2.2072895,0.01601326 8.7185884,-4.0017078 c -1.7454984,2.3720609 -1.7354408,5.6174519 -6e-7,8.035443 z"
         transform="matrix(1.1,0,0,1.1,1.1,0)"
         inkscape:connector-curvature="0" />
    </marker>
    <marker
       inkscape:stockid="Arrow1Lstart"
       orient="auto"
       refY="0"
       refX="0"
       id="Arrow1Lstart"
       style="overflow:visible">
      <path
         id="path3868"
         d="M 0,0 5,-5 -12.5,0 5,5 0,0 z"
         style="fill-rule:evenodd;stroke:#000000;stroke-width:1pt"
         transform="matrix(0.8,0,0,0.8,10,0)"
         inkscape:connector-curvature="0" />
    </marker>
    <mask
       maskUnits="userSpaceOnUse"
       id="mask3870">
      <path
         transform="matrix(1.0345103,0,0,0.9963285,22.643852,-17.37242)"
         d="m 563.66512,376.06506 a 194.45436,194.45436 0 1 1 -388.90873,0 194.45436,194.45436 0 1 1 388.90873,0 z"
         sodipodi:ry="194.45436"
         sodipodi:rx="194.45436"
         sodipodi:cy="376.06506"
         sodipodi:cx="369.21075"
         id="path3872"
         style="fill:#dddddd;fill-opacity:0;stroke:#bbbbbf;stroke-width:29.52024651;stroke-miterlimit:0;stroke-opacity:0.94117647;stroke-dasharray:none"
         sodipodi:type="arc" />
    </mask>
  </defs>
  <sodipodi:namedview
     id="base"
     pagecolor="#ffffff"
     bordercolor="#666666"
     borderopacity="1.0"
     inkscape:pageopacity="0.0"
     inkscape:pageshadow="2"
     inkscape:zoom="1.4142136"
     inkscape:cx="91.00959"
     inkscape:cy="225.73928"
     inkscape:document-units="px"
     inkscape:current-layer="layer1"
     showgrid="false"
     inkscape:window-width="1920"
     inkscape:window-height="1025"
     inkscape:window-x="0"
     inkscape:window-y="27"
     inkscape:window-maximized="1"
     fit-margin-top="0"
     fit-margin-left="0"
     fit-margin-right="0"
     fit-margin-bottom="0"
     objecttolerance="25"
     gridtolerance="10">
    <inkscape:grid
       type="xygrid"
       id="grid5430"
       empspacing="5"
       visible="true"
       enabled="true"
       snapvisiblegridlinesonly="true"
       originx="-112.5px"
       originy="-392.48718px" />
  </sodipodi:namedview>
  <metadata
     id="metadata7">
    <rdf:RDF>
      <cc:Work
         rdf:about="">
        <dc:format>image/svg+xml</dc:format>
        <dc:type
           rdf:resource="http://purl.org/dc/dcmitype/StillImage" />
        <dc:title></dc:title>
      </cc:Work>
    </rdf:RDF>
  </metadata>
  <g
     inkscape:label="Layer 1"
     inkscape:groupmode="layer"
     id="layer1"
     transform="translate(-112.5,-226.875)">
    <a
       id="a5602"
       transform="translate(-4.6770347e-5,2.1765686e-7)" />
    <path
       inkscape:connector-curvature="0"
       id="rect5516"
       d="m 120,122.375 c 0,176.66667 0,353.33333 0,530 196.66667,0 393.33333,0 590,0 0,-176.66667 0,-353.33333 0,-530 -196.66667,0 -393.33333,0 -590,0 z m 346.5625,307.46875 c 27.51042,27.51042 55.02083,55.02083 82.53125,82.53125 16.01682,-5.2345 6.54577,11.06754 16.66407,16.66407 9.36198,9.36198 18.72395,18.72395 28.08593,28.08593 -11.28125,11.28125 -22.5625,22.5625 -33.84375,33.84375 0,13.80208 0,27.60417 0,41.40625 -46.66667,0 -93.33333,0 -140,0 0,-21.66667 0,-43.33333 0,-65 -7.45942,-2.50247 -25.40597,5.48219 -25,-4.88567 0,-25.03811 0,-50.07622 0,-75.11433 12.32176,1.65194 17.06516,-0.57555 24.21251,-10.18126 15.78333,-15.78333 31.56666,-31.56666 47.34999,-47.34999 z"
       clip-path="none"
       mask="url(#mask3870)"
       style="fill:#bbbbbf;fill-opacity:0.94117647;stroke:none"
       transform="translate(-76.36753,79.195957)" />
    <path
       inkscape:connector-curvature="0"
       id="path5675"
       d="m 320.72086,598.26175 c 12.26552,10.63012 24.53105,21.26024 36.79657,31.89036 -12.26552,9.81242 -24.53105,19.62483 -36.79657,29.43725 0,-20.44254 0,-40.88507 0,-61.32761 z"
       style="fill:#bbbbbf;fill-opacity:0.94117647;stroke:none" />
  </g>
</svg>
