<?xml version="1.0" encoding="UTF-8" standalone="no"?>
<!-- Created with Inkscape (http://www.inkscape.org/) -->

<svg
   xmlns:dc="http://purl.org/dc/elements/1.1/"
   xmlns:cc="http://creativecommons.org/ns#"
   xmlns:rdf="http://www.w3.org/1999/02/22-rdf-syntax-ns#"
   xmlns:svg="http://www.w3.org/2000/svg"
   xmlns="http://www.w3.org/2000/svg"
   xmlns:sodipodi="http://sodipodi.sourceforge.net/DTD/sodipodi-0.dtd"
   xmlns:inkscape="http://www.inkscape.org/namespaces/inkscape"
   width="100"
   height="100"
   id="svg2"
   version="1.1"
   inkscape:version="0.48.4 r9939"
   sodipodi:docname="New document 1">
  <defs
     id="defs4" />
  <sodipodi:namedview
     id="base"
     pagecolor="#ffffff"
     bordercolor="#666666"
     borderopacity="1.0"
     inkscape:pageopacity="0.0"
     inkscape:pageshadow="2"
     inkscape:zoom="5.6"
     inkscape:cx="56.686733"
     inkscape:cy="44.253646"
     inkscape:document-units="px"
     inkscape:current-layer="layer1"
     showgrid="false"
     inkscape:window-width="1920"
     inkscape:window-height="1025"
     inkscape:window-x="0"
     inkscape:window-y="27"
     inkscape:window-maximized="1" />
  <metadata
     id="metadata7">
    <rdf:RDF>
      <cc:Work
         rdf:about="">
        <dc:format>image/svg+xml</dc:format>
        <dc:type
           rdf:resource="http://purl.org/dc/dcmitype/StillImage" />
        <dc:title></dc:title>
      </cc:Work>
    </rdf:RDF>
  </metadata>
  <g
     inkscape:label="Layer 1"
     inkscape:groupmode="layer"
     id="layer1"
     transform="translate(0,-952.36218)">
    <path
       style="fill:#bbbbbf;fill-opacity:0.94117647;stroke:none"
       d="M 43.875 15.5 C 39.190363 16.32174 34.710047 18.15719 30.75 20.78125 C 31.456809 25.2924 31.735559 29.21511 30.3125 30.78125 C 28.830404 32.41236 24.691191 32.39878 19.9375 32.03125 C 18.735704 34.02761 17.723441 36.15339 16.96875 38.375 C 16.169989 40.56863 15.659525 42.8274 15.34375 45.125 C 19.765919 47.58906 23.519695 50.023 23.875 52.3125 C 24.250886 54.7346 21.046155 58.4863 17.3125 62.4375 C 18.871177 66.5793 21.162605 70.4354 24.1875 73.6875 C 29.411582 71.44 34.331648 69.5477 36.53125 70.8125 C 38.81768 72.1272 39.701334 77.71755 40.46875 83.65625 C 44.542697 84.79555 48.817094 85.2204 53.03125 84.875 C 54.627468 78.9802 56.26093 73.34665 58.75 72.34375 C 61.260661 71.33225 66.367178 74.33445 71.59375 77.53125 C 74.902823 74.90945 77.746183 71.70525 79.9375 68.09375 C 76.370756 63.16385 73.03812 58.36835 73.8125 55.78125 C 74.554965 53.30085 79.559385 51.24685 84.96875 49.21875 C 84.87548 44.81451 83.965497 40.43165 82.25 36.375 C 76.763653 36.10743 71.772653 35.6062 70.375 33.5625 C 69.074211 31.66044 70.105924 27.31366 71.625 22.46875 C 67.980123 19.62616 63.75854 17.50255 59.3125 16.25 C 56.154211 19.76742 53.164227 22.58851 51 22.4375 C 48.898753 22.29089 46.441203 19.26473 43.875 15.5 z M 49.5 40 L 49.5 40.03125 C 50.462382 39.96909 51.414833 40.08459 52.34375 40.3125 C 53.272668 40.54042 54.171035 40.86517 55 41.34375 C 55.828965 41.82235 56.587475 42.43517 57.25 43.125 C 57.912526 43.81484 58.476654 44.60707 58.90625 45.46875 C 59.266289 46.168855 59.537768 46.894009 59.71875 47.65625 C 59.899732 48.418491 60.0012 49.21305 60 50 C 60.013646 50.9818 59.879662 51.9445 59.59375 52.875 C 59.307838 53.8058 58.883156 54.71945 58.34375 55.53125 C 57.804344 56.34315 57.121836 57.0619 56.375 57.6875 C 55.628164 58.3132 54.7832 58.8155 53.875 59.1875 C 52.982795 59.5758 52.054738 59.8363 51.09375 59.9375 C 50.132763 60.0377 49.16997 59.986 48.21875 59.8125 C 47.267531 59.639 46.331647 59.34015 45.46875 58.90625 C 44.605852 58.47225 43.789775 57.9306 43.09375 57.25 C 42.388444 56.5951 41.816414 55.8293 41.34375 55 C 40.871087 54.1705 40.5352 53.27285 40.3125 52.34375 C 40.089805 51.41485 39.95542 50.4537 40 49.5 C 40.044582 48.5463 40.264563 47.59093 40.59375 46.6875 C 40.912075 45.75111 41.382624 44.88169 41.96875 44.09375 C 42.554877 43.30581 43.212664 42.58858 44 42 C 44.787336 41.41143 45.671794 40.93205 46.59375 40.59375 C 47.515706 40.25545 48.510016 40.0372 49.5 40 z "
       transform="translate(0,952.36218)"
       id="path3056" />
  </g>
</svg>
